<svg width="150" height="138" viewBox="0 0 150 138" fill="none" xmlns="http://www.w3.org/2000/svg">
<path d="M75 10.6154C72.8895 10.6154 70.7996 11.0272 68.8497 11.8275C66.8999 12.6277 65.1282 13.8006 63.6358 15.2791C62.1434 16.7577 60.9596 18.5131 60.1519 20.445C59.3443 22.3768 58.9286 24.4474 58.9286 26.5385C58.9286 28.6295 59.3443 30.7001 60.1519 32.632C60.9596 34.5638 62.1434 36.3192 63.6358 37.7978C65.1282 39.2764 66.8999 40.4493 68.8497 41.2495C70.7996 42.0497 72.8895 42.4615 75 42.4615C79.2624 42.4615 83.3502 40.7839 86.3642 37.7978C89.3782 34.8116 91.0714 30.7615 91.0714 26.5385C91.0714 22.3154 89.3782 18.2653 86.3642 15.2791C83.3502 12.293 79.2624 10.6154 75 10.6154ZM48.2143 26.5385C48.2143 19.5 51.0363 12.7499 56.0596 7.77294C61.0829 2.79601 67.896 0 75 0C82.104 0 88.9171 2.79601 93.9404 7.77294C98.9637 12.7499 101.786 19.5 101.786 26.5385C101.786 33.5769 98.9637 40.3271 93.9404 45.304C88.9171 50.2809 82.104 53.0769 75 53.0769C67.896 53.0769 61.0829 50.2809 56.0596 45.304C51.0363 40.3271 48.2143 33.5769 48.2143 26.5385ZM32.1429 79.6154C32.15 77.6763 32.35 75.8009 32.7429 73.9892L11.9143 79.5092C9.87528 80.0511 7.96402 80.9857 6.28966 82.2596C4.61531 83.5335 3.21068 85.1218 2.15601 86.9337C1.10134 88.7455 0.417297 90.7455 0.142959 92.8194C-0.131379 94.8933 0.00936326 97.0004 0.557143 99.0203L4.71429 114.402C5.83196 118.529 7.77658 122.391 10.4323 125.759C13.0881 129.126 16.4006 131.929 20.1726 134.001C23.9446 136.073 28.099 137.372 32.3883 137.82C36.6775 138.268 41.014 137.856 45.1393 136.609C42.2738 133.855 39.8107 130.718 37.8214 127.289C32.7741 127.772 27.7176 126.466 23.5508 123.603C19.384 120.74 16.377 116.505 15.0643 111.653L10.8964 96.2603C10.5301 94.9005 10.7238 93.4522 11.4351 92.2339C12.1464 91.0156 13.3169 90.1271 14.6893 89.7637L32.1429 85.1354V79.6154ZM105.921 136.917L104.85 136.62C107.711 133.86 110.186 130.728 112.179 127.289C117.226 127.772 122.282 126.466 126.449 123.603C130.616 120.74 133.623 116.505 134.936 111.653L139.093 96.2603C139.46 94.9019 139.267 93.4549 138.558 92.2369C137.849 91.0188 136.681 90.1293 135.311 89.7637L117.857 85.1354V79.6154C117.85 77.6763 117.65 75.8009 117.257 73.9892L138.075 79.5092C140.115 80.05 142.027 80.9838 143.703 82.2572C145.378 83.5306 146.784 85.1187 147.84 86.9307C148.896 88.7427 149.581 90.7431 149.856 92.8175C150.131 94.8919 149.99 96.9997 149.443 99.0203L145.286 114.402C143.076 122.557 137.688 129.509 130.306 133.729C122.925 137.95 114.153 139.103 105.921 136.917ZM10.7143 42.4615C10.7143 39.6462 11.8431 36.9461 13.8524 34.9553C15.8617 32.9646 18.587 31.8462 21.4286 31.8462C24.2702 31.8462 26.9954 32.9646 29.0047 34.9553C31.014 36.9461 32.1429 39.6462 32.1429 42.4615C32.1429 45.2769 31.014 47.977 29.0047 49.9677C26.9954 51.9585 24.2702 53.0769 21.4286 53.0769C18.587 53.0769 15.8617 51.9585 13.8524 49.9677C11.8431 47.977 10.7143 45.2769 10.7143 42.4615ZM21.4286 21.2308C15.7454 21.2308 10.2949 23.4676 6.27628 27.4491C2.25765 31.4307 0 36.8308 0 42.4615C0 48.0923 2.25765 53.4924 6.27628 57.474C10.2949 61.4555 15.7454 63.6923 21.4286 63.6923C27.1118 63.6923 32.5622 61.4555 36.5809 57.474C40.5995 53.4924 42.8571 48.0923 42.8571 42.4615C42.8571 36.8308 40.5995 31.4307 36.5809 27.4491C32.5622 23.4676 27.1118 21.2308 21.4286 21.2308ZM128.571 31.8462C125.73 31.8462 123.005 32.9646 120.995 34.9553C118.986 36.9461 117.857 39.6462 117.857 42.4615C117.857 45.2769 118.986 47.977 120.995 49.9677C123.005 51.9585 125.73 53.0769 128.571 53.0769C131.413 53.0769 134.138 51.9585 136.148 49.9677C138.157 47.977 139.286 45.2769 139.286 42.4615C139.286 39.6462 138.157 36.9461 136.148 34.9553C134.138 32.9646 131.413 31.8462 128.571 31.8462ZM107.143 42.4615C107.143 36.8308 109.401 31.4307 113.419 27.4491C117.438 23.4676 122.888 21.2308 128.571 21.2308C134.255 21.2308 139.705 23.4676 143.724 27.4491C147.742 31.4307 150 36.8308 150 42.4615C150 48.0923 147.742 53.4924 143.724 57.474C139.705 61.4555 134.255 63.6923 128.571 63.6923C122.888 63.6923 117.438 61.4555 113.419 57.474C109.401 53.4924 107.143 48.0923 107.143 42.4615ZM58.9286 63.6923C54.6662 63.6923 50.5783 65.3699 47.5644 68.3561C44.5504 71.3422 42.8571 75.3923 42.8571 79.6154V106.154C42.8571 114.6 46.2436 122.7 52.2716 128.672C58.2995 134.645 66.4752 138 75 138C83.5248 138 91.7005 134.645 97.7284 128.672C103.756 122.7 107.143 114.6 107.143 106.154V79.6154C107.143 75.3923 105.45 71.3422 102.436 68.3561C99.4217 65.3699 95.3338 63.6923 91.0714 63.6923H58.9286ZM53.5714 79.6154C53.5714 78.2077 54.1358 76.8577 55.1405 75.8623C56.1452 74.8669 57.5078 74.3077 58.9286 74.3077H91.0714C92.4922 74.3077 93.8548 74.8669 94.8595 75.8623C95.8642 76.8577 96.4286 78.2077 96.4286 79.6154V106.154C96.4286 111.785 94.1709 117.185 90.1523 121.166C86.1336 125.148 80.6832 127.385 75 127.385C69.3168 127.385 63.8663 125.148 59.8477 121.166C55.8291 117.185 53.5714 111.785 53.5714 106.154V79.6154Z" fill="#3C467B"/>
</svg>
