<svg width="150" height="138" viewBox="0 0 150 138" fill="none" xmlns="http://www.w3.org/2000/svg">
<path d="M94.5832 137.223L49.9999 122.645L11.25 136.639C9.86109 137.158 8.50554 137.321 7.18332 137.129C5.8611 136.937 4.64721 136.515 3.54166 135.862C2.43611 135.209 1.56944 134.336 0.941664 133.242C0.313888 132.148 0 130.884 0 129.448V20.4085C0 18.7239 0.522221 17.2338 1.56666 15.938C2.61111 14.6423 4.03333 13.6704 5.83332 13.0225L44.5833 0.777464C45.4166 0.518309 46.286 0.323944 47.1916 0.194367C48.0971 0.0647895 49.0332 0 49.9999 0C50.9666 0 51.9055 0.0647895 52.8166 0.194367C53.7277 0.323944 54.5943 0.518309 55.4166 0.777464L99.9998 15.3549L138.75 1.36056C140.139 0.842253 141.494 0.681577 142.816 0.878535C144.139 1.07549 145.353 1.49532 146.458 2.13803C147.564 2.78073 148.433 3.65668 149.066 4.76586C149.7 5.87504 150.011 7.13713 150 8.55211V117.592C150 119.276 149.48 120.766 148.441 122.062C147.402 123.358 145.977 124.33 144.166 124.977L105.416 137.223C104.583 137.482 103.716 137.676 102.816 137.806C101.916 137.935 100.978 138 99.9998 138C99.022 138 98.0859 137.935 97.1915 137.806C96.297 137.676 95.4276 137.482 94.5832 137.223ZM91.6665 119.924V28.9606L58.3332 18.0761V109.039L91.6665 119.924Z" fill="#3C467B"/>
</svg>
