<svg width="489" height="377" viewBox="0 0 489 377" fill="none" xmlns="http://www.w3.org/2000/svg">
<path d="M159.992 224.599C160.666 225.532 162.511 227.746 164.938 230.577C167.607 233.689 171.012 237.585 174.427 241.444C177.842 245.302 181.27 249.124 183.984 252.085C185.341 253.566 186.521 254.834 187.433 255.785C188.329 256.719 189.002 257.384 189.323 257.623L189.406 257.685L189.507 257.708L191.395 258.147C191.15 260.041 190.496 262.575 189.737 265.18C189.329 266.58 188.893 267.991 188.481 269.323C188.069 270.652 187.678 271.906 187.363 272.983L187.361 272.989L175.141 316.936L175.13 316.974L175.125 317.014C175.122 317.04 175.118 317.066 175.116 317.09C175.104 317.12 175.094 317.144 175.09 317.158C175.078 317.202 175.07 317.247 175.064 317.281C175.052 317.353 175.041 317.438 175.034 317.513C175.026 317.589 175.02 317.668 175.018 317.728C175.017 317.75 175.015 317.796 175.019 317.84C175.02 317.852 175.023 317.879 175.03 317.912C175.033 317.928 175.04 317.957 175.054 317.992C175.065 318.018 175.097 318.094 175.17 318.166C175.175 318.17 175.182 318.173 175.187 318.178L175.227 318.359L174.428 319.027C173.462 319.5 172.799 319.908 172.271 320.252C171.721 320.612 171.368 320.865 170.965 321.068C170.207 321.45 169.26 321.654 166.605 321.642H166.603L112.125 321.632H112.12C110.763 321.645 109.802 321.643 109.069 321.591C108.34 321.54 107.867 321.443 107.478 321.282C107.09 321.121 106.75 320.884 106.303 320.5C105.831 320.096 105.346 319.627 104.55 318.927L93.307 308.106L93.2933 308.093L93.2797 308.082C92.2319 307.208 91.3621 306.327 90.4769 305.426C89.5948 304.529 88.696 303.613 87.6136 302.701C87.0389 302.216 78.9034 294.671 70.7699 286.974C66.7072 283.129 62.6518 279.253 59.5511 276.21C58.0004 274.689 56.6909 273.378 55.7396 272.385C55.2636 271.888 54.8813 271.474 54.6039 271.156C54.4728 271.005 54.3679 270.879 54.2894 270.778L81.934 224.617L159.992 224.599Z" fill="#94DB7F" stroke="black"/>
<path d="M282.589 267.817C283.096 267.75 283.666 267.791 284.592 267.899C285.505 268.006 286.735 268.173 288.497 268.33C292.913 268.723 297.153 269.131 301.585 269.659C310.072 270.668 318.97 271.03 327.059 272.438L328.535 322.598L161.825 371.74C161.806 371.713 161.787 371.687 161.768 371.664C161.751 371.644 161.733 371.625 161.715 371.606C161.801 371.318 161.924 370.866 162.082 370.15L172.319 334.871C172.529 334.827 172.76 334.761 173.001 334.675C173.409 334.532 173.893 334.328 174.439 334.075C175.531 333.569 176.901 332.853 178.454 331.994C181.562 330.274 185.432 327.963 189.346 325.561C195.216 321.958 201.201 318.14 204.88 315.793L207.7 313.998C219.269 306.706 231.11 299.096 242.832 292.121L242.84 292.116L278.005 270.266L278.009 270.263C279.361 269.402 280.25 268.823 280.948 268.435C281.636 268.054 282.099 267.882 282.589 267.817Z" fill="#F3E7D1" stroke="black"/>
<path d="M200.972 224.431C200.791 224.706 200.62 225.046 200.439 225.476C199.668 227.305 198.447 231.473 197.331 235.66C196.282 239.595 195.313 243.596 194.878 245.774H194.862L177.404 226.23C177.164 225.946 176.941 225.711 176.745 225.508C176.543 225.298 176.382 225.133 176.244 224.97C176.124 224.828 176.029 224.695 175.956 224.551L200.632 224.518H200.699L200.764 224.501C200.836 224.481 200.905 224.457 200.972 224.431ZM249.653 196.623C248.835 197.7 247.671 198.508 246.318 199.269C245.6 199.673 244.848 200.055 244.072 200.461C243.309 200.859 242.531 201.278 241.777 201.748L204.148 222.644C203.629 222.892 203.215 223.048 202.864 223.175C202.607 223.268 202.357 223.353 202.128 223.454C202.254 223.256 202.36 223.046 202.447 222.832C202.59 222.482 202.701 222.09 202.799 221.702L203.067 220.598C203.512 218.887 204.123 216.945 204.673 214.968C205.216 213.017 205.691 211.061 205.828 209.426L205.869 208.937C205.93 208.905 205.998 208.868 206.075 208.823C206.166 208.77 206.271 208.702 206.397 208.624L206.442 208.638C206.446 208.627 206.447 208.614 206.451 208.601L206.453 208.602L206.457 208.588C206.523 208.547 206.595 208.505 206.67 208.457L226.064 197.62L226.063 197.619C228.079 196.632 232.466 194.066 236.704 191.666C238.84 190.456 240.946 189.284 242.711 188.366C244.186 187.599 245.386 187.031 246.165 186.753L249.653 196.623ZM165.774 123.907C171.799 127.765 177.622 131.575 183.725 135.288C186.378 136.902 194.657 142.346 202.74 147.479C206.775 150.041 210.758 152.523 213.949 154.4C215.544 155.338 216.947 156.128 218.064 156.703C218.621 156.99 219.113 157.227 219.525 157.401C219.595 157.431 219.664 157.458 219.732 157.485C219.177 158.119 218.911 158.626 218.721 159.297C218.608 159.696 218.519 160.162 218.401 160.719C218.28 161.285 218.123 161.984 217.863 162.893L217.861 162.899L205.618 207.861C205.546 207.889 205.48 207.921 205.428 207.951C205.347 207.996 205.269 208.048 205.206 208.097C205.175 208.121 205.139 208.15 205.107 208.183C205.091 208.199 205.067 208.224 205.044 208.255C205.032 208.27 205.017 208.293 205.001 208.322C204.987 208.349 204.963 208.396 204.949 208.458C204.935 208.519 204.923 208.627 204.969 208.748C204.998 208.826 205.045 208.887 205.097 208.936C203.799 209.373 202.713 210.035 201.734 210.6C200.727 211.183 199.843 211.653 198.874 211.809L172.748 211.883C170.457 211.884 168.836 211.926 167.575 211.902C166.319 211.878 165.509 211.786 164.855 211.549C164.218 211.317 163.689 210.931 163.034 210.235C162.367 209.526 161.606 208.537 160.482 207.116L160.473 207.105L160.464 207.095L131.292 174.028C130.596 173.183 129.87 172.448 129.161 171.721C128.445 170.987 127.741 170.258 127.067 169.408C125.718 167.703 124.346 166.26 123.026 164.83C121.763 163.46 120.544 162.094 119.399 160.488C120.211 158.785 122.184 155.354 124.754 151.039C127.455 146.503 130.797 141.023 134.097 135.618C137.396 130.215 140.654 124.886 143.184 120.658C144.449 118.544 145.534 116.703 146.352 115.263C146.945 114.219 147.406 113.367 147.694 112.773L165.774 123.907ZM205.928 208.477C205.944 208.562 205.935 208.634 205.925 208.678C205.914 208.726 205.896 208.764 205.881 208.794L205.892 208.674L205.703 208.735C205.675 208.718 205.646 208.696 205.618 208.669C205.578 208.629 205.553 208.585 205.534 208.545C205.586 208.521 205.66 208.483 205.762 208.425L205.928 208.477ZM205.661 208.393C205.606 208.426 205.552 208.461 205.512 208.492C205.497 208.444 205.491 208.402 205.491 208.374C205.491 208.362 205.493 208.351 205.494 208.342L205.661 208.393Z" fill="#87C9D5" stroke="black"/>
<path d="M472.252 314.4C472.002 314.321 471.7 314.225 471.35 314.107C470.414 313.792 469.157 313.35 467.621 312.801C464.551 311.702 460.375 310.173 455.453 308.349C445.61 304.701 432.784 299.878 419.836 294.985C400.415 287.646 380.724 280.149 370.425 276.216L363.615 273.608L356.023 270.648C352.638 269.329 348.627 267.774 344.679 266.271C340.73 264.769 336.838 263.316 333.69 262.203C332.116 261.647 330.724 261.174 329.603 260.821C328.493 260.472 327.616 260.231 327.087 260.152L327.056 260.148L327.024 260.147L326.143 260.119C324.077 260.032 321.949 259.806 319.798 259.548C317.348 259.254 314.859 258.917 312.433 258.705L312.43 258.704L301.528 257.822C300.596 257.708 300.067 257.596 299.669 257.421C299.44 257.32 299.242 257.193 299.027 257.012C303.524 254.406 307.933 251.582 312.544 248.749C314.698 247.426 317.24 245.92 319.751 244.324C320.218 244.028 320.761 243.719 321.348 243.39C321.931 243.062 322.556 242.714 323.17 242.348C324.333 241.655 325.504 240.866 326.343 239.951C327.069 239.836 327.612 239.667 328.062 239.461C328.543 239.241 328.907 238.986 329.235 238.768C329.564 238.548 329.874 238.352 330.296 238.19C330.719 238.028 331.275 237.892 332.09 237.822L447.345 233.949L472.252 314.4Z" fill="#F3E7D1" stroke="black"/>
<path d="M327.281 272.619C328.794 273.072 331.552 274.047 335.033 275.333C339.073 276.824 344.057 278.721 349.128 280.673C359.28 284.582 369.745 288.699 373.736 290.24C389.064 296.159 404.725 301.845 420.062 307.83C427.805 310.85 435.474 313.765 443.159 316.684C450.845 319.604 458.545 322.528 466.352 325.57C467.208 325.904 468.27 326.267 469.385 326.649C470.504 327.033 471.682 327.439 472.784 327.863C473.889 328.288 474.902 328.725 475.697 329.17C476.491 329.614 476.981 330.022 477.182 330.365L488.258 366.938L328.748 322.762L327.281 272.619Z" fill="#87C9D5" stroke="black"/>
<path d="M297.126 172.253C297.743 172.042 298.297 172.017 299.064 172.192C299.86 172.374 300.859 172.764 302.365 173.385C303.858 174 305.818 174.828 308.497 175.857C312.734 177.485 319.138 180.203 323.65 181.204L325.114 225.305C321.879 227.476 318.683 229.44 315.47 231.375L312.189 233.344C311.105 233.995 310.045 234.677 308.979 235.358C307.911 236.04 306.833 236.722 305.701 237.38C304.493 238.082 303.431 238.781 302.397 239.468C301.36 240.156 300.354 240.83 299.239 241.497C296.961 242.858 294.813 244.181 292.671 245.499C290.529 246.817 288.393 248.128 286.136 249.47C284.139 250.658 282.833 251.574 281.838 252.256C280.835 252.943 280.189 253.362 279.47 253.617C278.762 253.868 277.949 253.97 276.614 253.941C275.272 253.912 273.449 253.754 270.729 253.509C258.139 252.37 245.311 250.869 232.661 249.67C229.473 249.367 221.165 248.75 213.208 248.027C209.217 247.664 205.3 247.274 202.12 246.88C200.53 246.683 199.129 246.484 197.997 246.29C197.131 246.141 196.441 245.997 195.95 245.86C196.384 243.718 197.347 239.782 198.397 235.888C199.525 231.703 200.736 227.623 201.48 225.878C201.899 224.893 202.165 224.639 202.504 224.462C202.711 224.354 202.955 224.271 203.337 224.135C203.707 224.002 204.165 223.833 204.738 223.561L204.751 223.554L204.764 223.548L242.66 202.729L242.671 202.723L242.682 202.717C243.413 202.264 244.176 201.857 244.948 201.459C245.714 201.063 246.496 200.671 247.237 200.259C248.403 199.609 249.515 198.882 250.406 197.936C250.912 200.078 251.537 202.237 252.181 204.398C252.927 206.9 253.697 209.401 254.349 211.907V211.908C254.925 214.115 255.464 216.884 256.028 219.627C256.589 222.355 257.176 225.059 257.846 227.088L258.821 226.937L258.856 224.357C259.043 224.037 259.221 223.597 259.393 223.092C259.593 222.501 259.798 221.781 260.004 220.975C260.417 219.364 260.84 217.384 261.25 215.362C262.075 211.295 262.838 207.092 263.345 205.242C264.791 199.978 266.703 192.363 268.744 187.764L294.593 173.625L294.606 173.618L294.619 173.61C295.741 172.908 296.475 172.475 297.126 172.253Z" fill="#6CA1AC" stroke="black"/>
<path d="M53.7598 246.334C51.9406 249.344 49.9363 252.644 47.9756 255.884C45.4365 260.08 42.98 264.172 41.127 267.394C40.2008 269.004 39.4227 270.402 38.8594 271.489C38.5779 272.032 38.347 272.502 38.1777 272.886C38.0144 273.256 37.8894 273.586 37.8467 273.829L37.79 274.155L38.0674 274.335C38.3571 274.524 38.9269 274.994 39.7363 275.712C40.5354 276.422 41.5414 277.35 42.6924 278.428C44.9942 280.585 47.8644 283.338 50.7861 286.149C56.6156 291.757 62.6799 297.618 64.8018 299.356C68.7326 302.576 75.0552 308.739 81.4561 314.976C87.8289 321.186 94.2776 327.468 98.4512 330.914L143.18 373.526L0.636719 327.904C0.724509 327.69 0.845714 327.429 1.00293 327.122C1.28587 326.571 1.66521 325.904 2.11523 325.156C3.0149 323.66 4.18639 321.856 5.41406 320.015C7.85576 316.355 10.5472 312.511 11.6738 310.786L11.6729 310.786L45.749 258.846L45.752 258.842C48.2862 254.887 51.0108 250.53 53.7598 246.334Z" fill="#CBCBCB" stroke="black"/>
<path d="M328.064 336.653C328.124 336.658 328.209 336.669 328.32 336.687C328.542 336.722 328.848 336.779 329.235 336.86C330.009 337.02 331.09 337.266 332.438 337.588C335.135 338.232 338.891 339.175 343.387 340.329C352.378 342.637 364.322 345.788 376.662 349.077C401.341 355.656 427.594 362.786 434.954 364.829C437.171 365.446 445.649 367.822 453.788 370.035C457.857 371.142 461.844 372.208 464.923 372.993C465.459 373.13 465.969 373.257 466.446 373.375C466.431 373.375 466.416 373.375 466.4 373.375C464.33 373.351 461.683 373.275 458.637 373.161C452.543 372.934 444.861 372.554 437.017 372.136C421.337 371.3 404.998 370.307 399.451 370.065C387.637 369.549 375.798 368.999 364.047 368.354C352.923 367.742 339.066 366.417 328.132 366.677C316.875 366.944 304.626 368.397 293.266 369.11H293.262L223.321 374.07C217.825 374.412 211.453 375.081 205.164 375.628C199.68 376.106 194.252 376.492 189.475 376.499L189.599 376.442C190.15 376.253 191.035 376.058 191.687 375.878L191.692 375.877L328.022 336.65C328.032 336.65 328.046 336.651 328.064 336.653Z" fill="#CBCBCB" stroke="black"/>
<path d="M383.955 138.65C386.867 137.99 389.423 138.067 394.664 139.142C398.171 139.86 402.896 140.654 407.497 141.523C411.999 142.375 416.392 143.301 419.52 144.316L435.704 197.705L324.796 168.138L315.01 164.706L315 164.702C314.452 164.523 314.074 164.423 313.8 164.35C313.514 164.273 313.393 164.237 313.298 164.189C313.223 164.151 313.145 164.095 312.994 163.933C312.914 163.846 312.822 163.741 312.708 163.605C314.412 162.777 316.278 161.649 318.141 160.548C320.241 159.308 322.347 158.099 324.304 157.328L324.324 157.32L324.342 157.311C325.52 156.729 328.503 155.679 332.49 154.383C336.459 153.093 341.38 151.572 346.398 150.053C356.436 147.014 366.848 143.984 370.807 142.805C374.206 141.792 376.756 140.918 378.827 140.216C380.903 139.511 382.478 138.985 383.955 138.65Z" fill="#87C9D5" stroke="black"/>
<path d="M325.159 238.135C324.431 238.939 323.381 239.673 322.244 240.364C321.647 240.726 321.039 241.07 320.454 241.405C319.872 241.738 319.309 242.063 318.819 242.38C316.329 243.992 313.827 245.503 311.666 246.855C306.86 249.863 302.329 252.83 297.673 255.552L297.127 255.872L297.564 256.33C298.027 256.814 298.427 257.167 298.984 257.416C299.525 257.658 300.179 257.786 301.12 257.903L301.13 257.904L301.14 257.905L311.993 258.798V258.799C314.383 259.012 316.826 259.35 319.284 259.65C321.568 259.929 323.858 260.172 326.086 260.248L326.252 271.217C318.197 269.814 309.234 269.426 300.95 268.427C296.511 267.891 292.266 267.478 287.853 267.08C286.112 266.923 284.911 266.756 283.981 266.646C283.064 266.538 282.378 266.478 281.732 266.565C281.069 266.654 280.482 266.892 279.739 267.31C279.007 267.722 278.083 268.332 276.757 269.188L241.656 291.299C232.867 296.601 224.011 302.266 215.263 307.878L206.558 313.457C204.052 315.059 196.051 320.296 188.243 325.155C184.339 327.584 180.49 329.913 177.408 331.642C175.866 332.507 174.522 333.218 173.463 333.715C172.932 333.964 172.481 334.157 172.115 334.288C172.094 334.295 172.073 334.301 172.052 334.308L175.292 320.706L176.223 319.92L241.055 279.078L241.062 279.073L241.069 279.069C242.936 277.81 247.825 274.848 252.482 271.954C254.804 270.511 257.065 269.087 258.849 267.908C259.741 267.319 260.518 266.787 261.126 266.344C261.72 265.911 262.19 265.536 262.435 265.261L263.091 264.529L262.113 264.43L193.183 257.47C193.466 255.612 194.089 253.874 194.657 252.047C195.192 250.325 195.668 248.542 195.676 246.618H195.738C196.309 246.815 197.183 247.009 198.263 247.198C199.411 247.399 200.823 247.601 202.414 247.801C205.595 248.202 209.507 248.599 213.483 248.966C221.461 249.704 229.639 250.32 232.84 250.629C245.37 251.836 258.231 253.362 270.733 254.512C273.428 254.76 275.283 254.925 276.661 254.955C278.044 254.985 278.991 254.881 279.86 254.568C280.718 254.259 281.465 253.756 282.449 253.071C283.442 252.379 284.716 251.47 286.672 250.288C288.926 248.925 291.058 247.594 293.19 246.26C295.322 244.927 297.455 243.591 299.715 242.217C300.85 241.528 301.873 240.832 302.899 240.139C303.67 239.619 304.445 239.099 305.28 238.579L306.136 238.058C307.283 237.381 308.371 236.682 309.435 235.991C310.235 235.471 311.021 234.958 311.812 234.46L312.606 233.967C316.715 231.462 320.795 228.992 324.936 226.195L325.159 238.135Z" fill="#CBCBCB" stroke="black"/>
<path d="M324.997 182.682C333.732 184.275 345.297 187.66 353.935 190.009C381.044 197.383 409.719 204.137 437.031 211.415L439.858 212.492L440.248 212.64L442.626 220.46C435.446 220.534 408.003 221.285 381.528 222.172C367.832 222.631 354.39 223.127 344.142 223.584C339.018 223.813 334.689 224.032 331.526 224.233C329.944 224.333 328.65 224.429 327.692 224.519C327.213 224.564 326.813 224.608 326.502 224.651C326.475 224.654 326.449 224.659 326.423 224.662L324.997 182.682Z" fill="#B1A7A8" stroke="black"/>
<path d="M261.518 266.306C261.435 266.366 261.348 266.43 261.255 266.495C260.663 266.911 259.897 267.414 259.006 267.979C257.225 269.11 254.963 270.48 252.63 271.872C247.987 274.645 243.048 277.52 241.142 278.754L176.555 317.851C176.553 317.681 176.549 317.555 176.541 317.465C176.54 317.446 176.535 317.426 176.533 317.405C176.537 317.371 176.542 317.335 176.546 317.298L188.892 274.303C189.208 273.258 189.6 272.04 190.018 270.734C190.435 269.43 190.878 268.041 191.293 266.661C192.054 264.134 192.735 261.601 192.998 259.66L261.518 266.306Z" fill="#84CB6D" stroke="black"/>
<path d="M112.725 172.368C112.973 172.591 113.299 172.902 113.694 173.293C114.483 174.073 115.534 175.157 116.765 176.452C119.227 179.041 122.398 182.465 125.615 185.983C132.056 193.028 138.657 200.424 140.12 202.257C141.024 203.387 143.02 205.379 144.902 207.366C145.852 208.37 146.783 209.38 147.554 210.302C148.055 210.901 148.478 211.45 148.796 211.927L88.8581 211.909L112.664 172.315C112.683 172.332 112.705 172.349 112.725 172.368Z" fill="#87C9D5" stroke="black"/>
<path d="M318.604 124.937C321.084 124.18 323.318 123.932 326.47 124.645C338.098 127.272 350.123 129.143 361.486 132.025L323.308 143.795L323.249 143.813L323.196 143.844C321.484 144.879 319.826 145.723 318.134 146.584C316.445 147.443 314.722 148.319 312.903 149.408C309.787 151.273 306.557 153.213 303.229 154.966C301.12 156.077 299.763 156.989 298.809 157.528C297.84 158.076 297.206 158.295 296.323 158.223C295.384 158.147 294.14 157.742 291.968 156.89C289.931 156.092 287.008 154.878 282.888 153.267L292.222 133.982C297.954 132.519 303.509 130.169 309.111 128.359C311.208 127.682 312.957 127.015 314.493 126.425C316.034 125.832 317.349 125.32 318.604 124.937Z" fill="#6CA1AC" stroke="black"/>
<path d="M233.77 153.535C234.728 156.089 235.799 158.67 236.887 161.261C237.896 163.668 238.918 166.085 239.878 168.511L240.286 169.552C242.163 174.405 245.021 181.106 246.194 186.005C245.335 186.316 244.086 186.934 242.654 187.703C240.918 188.635 238.854 189.821 236.77 191.04C232.587 193.487 228.349 196.05 226.432 197.015L226.419 197.021L226.407 197.029L208.166 207.554L219.854 163.227L219.855 163.228C220.116 162.284 220.274 161.557 220.394 160.973C220.516 160.379 220.592 159.967 220.69 159.607C220.864 158.972 221.102 158.528 221.891 157.709L233.77 153.535Z" fill="#6CA1AC" stroke="black"/>
<path d="M323.431 156.29C321.465 157.118 319.392 158.335 317.39 159.54C315.262 160.821 313.219 162.085 311.404 162.922L310.815 163.193L311.227 163.694C311.555 164.092 311.787 164.379 311.97 164.58C312.162 164.79 312.334 164.944 312.56 165.061C312.768 165.167 313.001 165.229 313.26 165.3C313.533 165.374 313.893 165.471 314.419 165.646L323.975 169.062L323.97 180.497C319.562 179.45 313.402 176.779 309.152 175.107C306.477 174.056 304.524 173.212 303.018 172.577C301.526 171.948 300.441 171.51 299.545 171.301C298.618 171.084 297.868 171.105 297.048 171.392C296.265 171.665 295.429 172.178 294.327 172.884L269.25 186.92C270.608 181.745 273.695 174.833 275.702 169.988C277.939 164.587 279.895 158.37 282.721 153.326C286.925 154.952 289.742 156.114 291.868 156.939C294.008 157.77 295.384 158.232 296.49 158.32C297.652 158.413 298.489 158.096 299.536 157.51C300.598 156.916 301.801 156.099 303.915 154.995C307.26 153.251 310.502 151.322 313.602 149.484C315.38 148.43 317.068 147.58 318.755 146.73C320.2 146.002 321.645 145.273 323.128 144.422L323.431 156.29Z" fill="#CBCBCB" stroke="black"/>
<path d="M170.709 335.576L160.559 369.856L160.554 369.873L160.55 369.889C160.374 370.669 160.25 371.109 160.173 371.35C160.135 371.469 160.109 371.54 160.094 371.578C160.09 371.588 160.086 371.597 160.083 371.604C160.081 371.611 160.077 371.621 160.073 371.63C160.073 371.631 160.071 371.636 160.068 371.642C159.905 371.563 159.722 371.461 159.525 371.333C158.842 370.887 158.051 370.2 157.257 369.438C156.467 368.679 155.69 367.862 155.036 367.163C154.394 366.477 153.847 365.88 153.543 365.6C153.055 365.149 152.609 364.788 152.165 364.438C151.831 364.173 151.502 363.917 151.151 363.628L150.793 363.327L140.648 353.736L140.648 353.735L140.031 353.164C138.573 351.828 136.976 350.462 135.395 349.09C133.582 347.517 131.787 345.933 130.211 344.354L130.204 344.347L130.196 344.34L122.503 337.22C122.026 336.736 121.46 336.196 121.194 335.889V335.888L120.963 335.635C120.903 335.573 120.852 335.524 120.807 335.482L170.709 335.576ZM160.28 371.399C160.286 371.396 160.297 371.389 160.308 371.384C160.31 371.383 160.316 371.379 160.324 371.375C160.303 371.386 160.287 371.395 160.28 371.399Z" fill="#87C9D5" stroke="black"/>
<path d="M244.928 1.66211C259.456 -0.728483 274.313 0.538106 287.869 5.73926C293.989 8.08472 299.609 11.0338 304.327 14.2764C308.583 17.2011 316 22.943 318.375 25.3809C319.695 26.734 320.534 27.8586 321.326 29.0283C322.114 30.1929 322.881 31.4461 324.016 32.9854H324.017C324.936 34.2285 325.759 35.2109 326.583 36.2334C327.304 37.1298 328.035 38.069 328.855 39.2715L329.212 39.8037C331.979 43.9838 335.695 51.3206 337.528 56.7344C341.966 69.8457 344.604 83.5669 342.853 98.0449L342.669 99.4482C340.711 113.433 335.87 126.785 328.957 136.591L328.954 136.594L267.203 225.827L267.202 225.829C266.718 226.535 266.244 227.273 265.776 227.997C265.306 228.724 264.84 229.44 264.368 230.114C263.417 231.471 262.467 232.617 261.445 233.33C260.444 234.028 259.393 234.301 258.183 233.952C256.938 233.593 255.455 232.555 253.671 230.455C251.66 228.086 249.941 225.638 248.266 223.154C246.596 220.677 244.962 218.153 243.14 215.672C237.568 208.086 223.375 187.886 210.054 168.422C203.394 158.69 196.954 149.145 191.92 141.455C186.874 133.745 183.272 127.945 182.255 125.672C157.838 71.0879 191.55 10.4553 244.928 1.66211ZM282.541 56.7773C275.286 50.6816 265.281 47.4966 252.859 49.5225C240.575 51.525 232.071 57.9222 227.028 66.2539C221.992 74.5737 220.422 84.7953 221.936 94.4482C223.45 104.101 228.054 113.225 235.417 119.336C242.793 125.457 252.903 128.525 265.347 126.107C289.22 121.468 298.529 100.258 295.678 81.3047C294.252 71.8247 289.785 62.8643 282.541 56.7773Z" fill="#E70000" stroke="black"/>
<path d="M259.853 0.500977C269.559 0.535099 279.166 2.25326 288.195 5.73926C294.279 8.0846 299.866 11.0339 304.556 14.2764C308.522 17.0182 315.251 22.2349 318.023 24.8828L318.522 25.377C319.834 26.7313 320.668 27.8564 321.454 29.0264C322.14 30.0459 322.81 31.1329 323.723 32.4199L324.13 32.9844C325.044 34.2275 325.863 35.2099 326.681 36.2324C327.398 37.1287 328.124 38.0681 328.94 39.2705L329.295 39.8027C332.045 43.9829 335.74 51.3204 337.562 56.7344C342.117 70.2687 344.765 84.4531 342.674 99.4492C341.339 109.026 338.663 118.309 334.897 126.365C333.163 130.066 331.205 133.506 329.04 136.592L329.038 136.596L324.422 143.305L322.672 145.846L303.696 173.433L267.649 225.829L267.648 225.831C266.281 227.84 265.062 229.977 263.695 231.626C262.464 233.11 261.234 234.035 259.853 234.097V126.864C261.774 126.755 263.761 126.507 265.808 126.107C288.556 121.661 298.006 101.988 296.254 83.6768C294.517 65.5148 281.735 48.5101 259.853 48.9238V0.500977Z" fill="#EB6B6A" stroke="black"/>
</svg>
