<svg width="428" height="323" viewBox="0 0 428 323" fill="none" xmlns="http://www.w3.org/2000/svg">
<path d="M140.005 192.5C140.614 193.318 142.22 195.203 144.319 197.6C146.656 200.266 149.636 203.606 152.625 206.912C155.614 210.218 158.614 213.492 160.99 216.03C162.178 217.299 163.212 218.385 164.011 219.2C164.794 219.999 165.387 220.574 165.673 220.782L165.756 220.843L165.855 220.866L167.448 221.228C167.228 222.835 166.666 224.972 166.01 227.174C165.653 228.372 165.271 229.581 164.91 230.722C164.55 231.86 164.208 232.935 163.932 233.858L163.93 233.865L153.233 271.518L153.223 271.557L153.218 271.597C153.216 271.615 153.212 271.634 153.21 271.651C153.2 271.676 153.193 271.695 153.189 271.707C153.177 271.749 153.169 271.791 153.164 271.82C153.153 271.885 153.143 271.961 153.137 272.026C153.13 272.092 153.125 272.162 153.123 272.215C153.122 272.234 153.12 272.278 153.124 272.321C153.125 272.333 153.127 272.36 153.135 272.393C153.138 272.409 153.146 272.439 153.16 272.474C153.171 272.501 153.204 272.576 153.278 272.647H153.279L153.297 272.728L152.639 273.268C151.794 273.673 151.213 274.023 150.751 274.318C150.267 274.628 149.963 274.841 149.614 275.014C148.963 275.335 148.145 275.51 145.822 275.5H145.82L98.1387 275.491H98.1338C96.9453 275.502 96.1062 275.5 95.4668 275.456C94.8312 275.412 94.4239 275.33 94.0908 275.195C93.7597 275.061 93.4683 274.863 93.0791 274.536C92.6645 274.188 92.2462 273.791 91.5449 273.188L81.7061 263.919L81.6934 263.906L81.6797 263.895L81.3438 263.615C80.5751 262.961 79.9087 262.299 79.2305 261.624C78.4587 260.856 77.6697 260.068 76.7197 259.284C76.2117 258.864 69.0974 252.405 61.9814 245.813C58.4255 242.519 54.8756 239.198 52.1621 236.592C50.8052 235.288 49.6599 234.166 48.8281 233.316C48.4119 232.891 48.0777 232.537 47.8359 232.266C47.7394 232.157 47.6617 232.062 47.5986 231.984L71.7461 192.515L140.005 192.5Z" fill="#94DB7F" stroke="black"/>
<path d="M247.345 229.527C247.781 229.471 248.274 229.505 249.084 229.598C249.883 229.689 250.961 229.833 252.505 229.967C256.37 230.304 260.08 230.653 263.958 231.105C271.374 231.969 279.134 232.278 286.198 233.478L287.488 276.335L141.66 318.413C141.645 318.394 141.629 318.375 141.613 318.357C141.688 318.108 141.792 317.73 141.922 317.154L150.87 286.969C151.047 286.93 151.239 286.875 151.438 286.807C151.797 286.683 152.222 286.507 152.701 286.29C153.66 285.856 154.86 285.241 156.22 284.505C158.941 283.031 162.328 281.05 165.754 278.992C172.605 274.876 179.637 270.432 181.82 269.085C191.946 262.838 202.308 256.319 212.567 250.343L212.576 250.338L243.354 231.617L243.358 231.614C244.543 230.876 245.318 230.382 245.928 230.051C246.526 229.726 246.925 229.582 247.345 229.527Z" fill="#F3E7D1" stroke="black"/>
<path d="M175.748 192.409C175.625 192.616 175.504 192.859 175.379 193.148C174.701 194.721 173.632 198.298 172.655 201.884C171.755 205.19 170.922 208.553 170.53 210.444L155.317 193.774C155.106 193.53 154.91 193.327 154.738 193.153C154.56 192.973 154.421 192.833 154.303 192.696C154.232 192.615 154.172 192.537 154.122 192.458L175.604 192.431H175.67L175.733 192.414C175.738 192.413 175.743 192.411 175.748 192.409ZM218.438 168.445C217.731 169.34 216.733 170.019 215.565 170.662C214.938 171.008 214.281 171.334 213.601 171.682C212.929 172.025 212.242 172.386 211.578 172.792L178.664 190.684C178.21 190.896 177.848 191.03 177.54 191.139C177.381 191.195 177.223 191.249 177.072 191.307C177.138 191.188 177.199 191.067 177.25 190.944C177.376 190.642 177.474 190.301 177.561 189.966L177.795 189.021C178.185 187.555 178.717 185.897 179.2 184.198C179.675 182.527 180.094 180.844 180.215 179.435L180.246 179.057C180.291 179.033 180.342 179.007 180.396 178.977C180.488 178.924 180.597 178.855 180.729 178.774L180.747 178.78C180.749 178.774 180.75 178.767 180.752 178.761C180.806 178.727 180.866 178.694 180.928 178.655L197.879 169.383C199.643 168.539 203.492 166.335 207.204 164.276C209.074 163.24 210.915 162.237 212.459 161.451C213.718 160.81 214.745 160.334 215.422 160.091L218.438 168.445ZM145.065 106.223C150.339 109.528 155.436 112.793 160.777 115.974C163.099 117.356 170.344 122.019 177.421 126.418C180.953 128.613 184.438 130.74 187.232 132.349C188.629 133.153 189.859 133.83 190.837 134.323C191.326 134.57 191.757 134.773 192.119 134.923C192.148 134.935 192.178 134.945 192.206 134.957C191.763 135.47 191.539 135.898 191.377 136.457C191.277 136.803 191.198 137.207 191.096 137.681C190.991 138.165 190.853 138.761 190.627 139.538L190.625 139.544L179.918 178.031C179.864 178.054 179.814 178.078 179.774 178.1C179.702 178.14 179.631 178.187 179.573 178.23C179.545 178.252 179.512 178.279 179.48 178.31C179.465 178.324 179.443 178.348 179.42 178.378C179.408 178.393 179.392 178.416 179.376 178.444C179.361 178.471 179.338 178.518 179.323 178.581C179.309 178.643 179.297 178.753 179.344 178.876C179.357 178.911 179.374 178.944 179.395 178.975C178.296 179.351 177.371 179.901 176.542 180.37C175.662 180.868 174.897 181.266 174.062 181.398L151.199 181.462C149.191 181.463 147.775 181.499 146.672 181.479C145.574 181.458 144.872 181.379 144.309 181.179C143.762 180.984 143.307 180.661 142.738 180.069C142.157 179.465 141.493 178.62 140.508 177.4L140.5 177.391L140.49 177.38L114.958 149.05C114.347 148.324 113.709 147.692 113.09 147.07C112.463 146.441 111.85 145.819 111.262 145.094C110.079 143.631 108.876 142.393 107.722 141.168C106.627 140.006 105.574 138.85 104.582 137.495C105.303 136.027 107.013 133.109 109.242 129.445C111.606 125.56 114.531 120.864 117.42 116.233C120.308 111.604 123.159 107.039 125.374 103.416C126.481 101.605 127.43 100.027 128.146 98.793C128.645 97.9339 129.038 97.2227 129.294 96.7139L145.065 106.223ZM180.305 178.639C180.313 178.708 180.307 178.767 180.298 178.806C180.288 178.847 180.273 178.882 180.259 178.91L180.278 178.688L179.906 178.806C179.874 178.769 179.851 178.733 179.835 178.696C179.872 178.686 179.952 178.65 180.094 178.571L180.305 178.639ZM180.006 178.544C179.926 178.589 179.854 178.642 179.824 178.674C179.802 178.615 179.796 178.563 179.796 178.527C179.796 178.508 179.8 178.492 179.802 178.479L180.006 178.544Z" fill="#87C9D5" stroke="black"/>
<path d="M413.242 269.262C413.048 269.201 412.823 269.131 412.568 269.047C411.75 268.777 410.649 268.399 409.306 267.929C406.618 266.987 402.964 265.676 398.656 264.113C390.041 260.988 378.814 256.857 367.482 252.665C344.818 244.281 321.734 235.656 318.274 234.35C315.743 233.394 308.611 230.639 301.701 228.064C298.245 226.777 294.837 225.532 292.081 224.578C290.703 224.101 289.484 223.696 288.502 223.394C287.531 223.095 286.759 222.887 286.292 222.818L286.262 222.814L286.23 222.813L285.46 222.789C283.654 222.714 281.793 222.521 279.911 222.3C277.767 222.048 275.587 221.759 273.463 221.577H273.46L263.917 220.821C263.103 220.724 262.648 220.627 262.309 220.481C262.144 220.411 261.999 220.325 261.846 220.208C265.75 217.99 269.583 215.59 273.585 213.183C275.468 212.05 277.695 210.759 279.894 209.392V209.391C280.3 209.137 280.774 208.874 281.288 208.592C281.798 208.311 282.346 208.014 282.885 207.699C283.894 207.11 284.916 206.434 285.656 205.65C286.288 205.551 286.764 205.405 287.16 205.228C287.587 205.037 287.91 204.816 288.195 204.63C288.483 204.442 288.749 204.277 289.112 204.141C289.476 204.004 289.958 203.888 290.667 203.829L391.499 200.512L413.242 269.262Z" fill="#F3E7D1" stroke="black"/>
<path d="M286.52 233.664C289.461 234.537 297.356 237.448 305.557 240.539C314.443 243.889 323.601 247.415 327.096 248.735C340.515 253.808 354.217 258.677 367.643 263.805C374.419 266.393 381.132 268.89 387.858 271.392C394.585 273.893 401.325 276.399 408.157 279.005C408.908 279.291 409.84 279.602 410.814 279.93C411.794 280.259 412.823 280.606 413.787 280.969C414.753 281.333 415.637 281.707 416.33 282.086C417.019 282.463 417.433 282.803 417.601 283.077L427.254 314.279L287.8 276.475L286.52 233.664Z" fill="#87C9D5" stroke="black"/>
<path d="M260.079 147.648C260.608 147.472 261.082 147.451 261.745 147.599C262.437 147.753 263.307 148.085 264.626 148.617C265.606 149.012 266.817 149.51 268.351 150.106L269.995 150.735C273.683 152.123 279.264 154.438 283.216 155.306L284.493 192.993C281.675 194.843 278.889 196.519 276.089 198.17L273.217 199.857C272.268 200.415 271.339 201 270.406 201.583C269.471 202.167 268.529 202.752 267.539 203.314H267.538C266.479 203.917 265.55 204.517 264.645 205.105C263.737 205.695 262.857 206.272 261.882 206.842C259.888 208.008 258.008 209.142 256.134 210.271C254.259 211.4 252.39 212.524 250.415 213.674C248.665 214.692 247.52 215.478 246.649 216.062C245.771 216.651 245.211 217.005 244.59 217.221C243.979 217.433 243.275 217.521 242.109 217.496C240.938 217.472 239.343 217.336 236.961 217.125C225.941 216.149 214.718 214.865 203.644 213.837C200.855 213.578 193.579 213.049 186.617 212.43C183.124 212.119 179.695 211.784 176.913 211.446C175.522 211.277 174.297 211.108 173.308 210.941C172.585 210.82 172.005 210.701 171.582 210.59C171.968 208.743 172.8 205.416 173.707 202.122C174.695 198.535 175.754 195.044 176.402 193.555C176.766 192.719 176.99 192.518 177.268 192.376C177.444 192.286 177.654 192.216 177.99 192.099C178.315 191.985 178.717 191.839 179.221 191.605L179.234 191.6L179.247 191.593L212.415 173.756L212.427 173.75L212.438 173.743C213.075 173.357 213.742 173.009 214.417 172.668C215.087 172.329 215.772 171.993 216.422 171.639C217.412 171.099 218.362 170.495 219.136 169.715C219.575 171.516 220.112 173.33 220.664 175.145C221.235 177.021 221.822 178.894 222.342 180.771L222.561 181.575C223.064 183.463 223.534 185.834 224.028 188.186C224.519 190.522 225.035 192.843 225.623 194.586L226.597 194.433L226.627 192.242C226.791 191.963 226.946 191.587 227.093 191.163C227.269 190.655 227.449 190.036 227.63 189.345C227.991 187.962 228.363 186.264 228.722 184.531C229.445 181.043 230.111 177.447 230.554 175.865C231.819 171.358 233.488 164.858 235.268 160.923L257.87 148.82L257.883 148.813L257.896 148.806C258.879 148.203 259.516 147.837 260.079 147.648Z" fill="#6CA1AC" stroke="black"/>
<path d="M41.9395 219.191C39.7172 222.786 37.5676 226.293 35.9453 229.054C35.1345 230.434 34.4519 231.632 33.958 232.564C33.7113 233.03 33.5084 233.436 33.3594 233.767C33.2165 234.084 33.1038 234.373 33.0645 234.593L33.0059 234.923L33.2881 235.103C33.5368 235.261 34.0319 235.661 34.7412 236.277C35.4399 236.884 36.3209 237.679 37.3281 238.603C39.3424 240.45 41.8538 242.81 44.4111 245.218C49.5116 250.021 54.8228 255.045 56.6826 256.536C60.1204 259.293 65.6515 264.57 71.2549 269.915C76.8366 275.239 82.4883 280.629 86.1436 283.582L125.05 319.864L0.645508 280.89C0.717661 280.725 0.813048 280.529 0.931641 280.303C1.17815 279.832 1.50902 279.263 1.90234 278.623C2.68889 277.343 3.71365 275.797 4.78809 274.221C6.92236 271.089 9.27996 267.791 10.2656 266.314L10.2666 266.315L40.0908 221.813L40.0938 221.809C41.5886 219.525 43.1591 217.086 44.7598 214.639C43.8302 216.138 42.8785 217.672 41.9395 219.191Z" fill="#CBCBCB" stroke="black"/>
<path d="M287.136 288.503C287.187 288.507 287.26 288.516 287.356 288.531C287.549 288.561 287.816 288.611 288.154 288.68C288.831 288.817 289.776 289.028 290.956 289.304C293.316 289.855 296.603 290.663 300.538 291.651C308.408 293.629 318.862 296.328 329.662 299.146C351.263 304.783 374.242 310.892 380.683 312.643C382.624 313.171 390.043 315.208 397.166 317.104C400.728 318.052 404.218 318.965 406.913 319.638C407.157 319.699 407.396 319.756 407.627 319.812C405.913 319.786 403.81 319.727 401.426 319.64C396.093 319.444 389.37 319.119 382.505 318.761C368.782 318.044 354.479 317.194 349.624 316.986C339.284 316.544 328.922 316.074 318.637 315.521C308.904 314.997 296.77 313.861 287.197 314.084C277.344 314.313 266.618 315.557 256.679 316.168L256.675 316.169L195.456 320.418C190.645 320.712 185.068 321.284 179.566 321.753C174.933 322.148 170.348 322.468 166.277 322.496C166.739 322.366 167.327 322.234 167.79 322.108L167.795 322.107L287.11 288.501C287.117 288.501 287.126 288.502 287.136 288.503Z" fill="#CBCBCB" stroke="black"/>
<path d="M336.07 118.86C338.45 118.332 340.557 118.357 344.588 119.12L345.421 119.282C348.491 119.898 352.629 120.577 356.654 121.322C360.581 122.049 364.408 122.84 367.141 123.704L381.257 169.289L284.3 143.986L275.731 141.045H275.732L275.722 141.042C275.241 140.888 274.908 140.801 274.669 140.738C274.417 140.672 274.317 140.643 274.24 140.605C274.183 140.577 274.121 140.535 273.992 140.399C273.939 140.343 273.88 140.276 273.811 140.196C275.282 139.489 276.884 138.539 278.482 137.615C280.32 136.553 282.16 135.52 283.868 134.861L283.888 134.854L283.906 134.845C284.932 134.348 287.539 133.45 291.03 132.339C294.504 131.234 298.81 129.931 303.202 128.63C307.595 127.328 312.07 126.028 315.88 124.927L324.566 122.419C327.542 121.551 329.774 120.803 331.587 120.201C333.405 119.597 334.781 119.147 336.07 118.86Z" fill="#87C9D5" stroke="black"/>
<path d="M284.534 203.994C283.905 204.666 283.002 205.286 282.018 205.871C281.496 206.181 280.965 206.475 280.452 206.763C279.943 207.048 279.449 207.328 279.019 207.601C276.84 208.981 274.65 210.274 272.758 211.434C268.551 214.011 264.586 216.552 260.513 218.884L259.952 219.205L260.403 219.667C260.811 220.085 261.168 220.393 261.665 220.611C262.147 220.822 262.727 220.933 263.551 221.033L263.57 221.035L273.072 221.802V221.801C275.162 221.983 277.298 222.272 279.449 222.529C281.429 222.766 283.414 222.974 285.347 223.041L285.49 232.286C278.458 231.094 270.633 230.759 263.414 229.907C259.528 229.448 255.812 229.094 251.949 228.753C250.426 228.619 249.376 228.476 248.562 228.382C247.76 228.289 247.154 228.237 246.581 228.312C245.992 228.39 245.471 228.597 244.816 228.957C244.174 229.311 243.363 229.835 242.204 230.567L211.482 249.511C203.789 254.054 196.036 258.908 188.38 263.716L180.762 268.495C178.568 269.868 171.566 274.355 164.731 278.518C161.315 280.599 157.947 282.594 155.25 284.075C153.901 284.816 152.727 285.424 151.802 285.85C151.364 286.051 150.988 286.206 150.68 286.316L153.479 274.812L154.273 274.156L211.015 239.167L211.021 239.163L211.027 239.158C212.66 238.08 216.937 235.544 221.015 233.063C223.048 231.827 225.027 230.606 226.59 229.596C227.371 229.091 228.051 228.635 228.584 228.255C229.104 227.884 229.521 227.559 229.741 227.318L230.415 226.581L229.421 226.483L169.158 220.527C169.41 218.972 169.943 217.513 170.434 215.969C170.895 214.515 171.308 213.002 171.328 211.37C171.833 211.538 172.593 211.702 173.522 211.861C174.528 212.034 175.765 212.207 177.157 212.379C179.942 212.723 183.367 213.062 186.848 213.377C193.834 214.009 200.987 214.536 203.79 214.801C214.754 215.835 226.015 217.144 236.956 218.129C239.314 218.341 240.94 218.482 242.147 218.508C243.361 218.534 244.197 218.444 244.967 218.173C245.726 217.905 246.386 217.47 247.246 216.884C248.115 216.291 249.23 215.514 250.94 214.502C252.914 213.334 254.78 212.193 256.646 211.051C258.512 209.908 260.377 208.764 262.355 207.587C263.35 206.995 264.247 206.398 265.145 205.805C266.045 205.21 266.949 204.617 267.976 204.023L267.975 204.022C268.98 203.442 269.934 202.843 270.865 202.251C271.566 201.806 272.252 201.366 272.944 200.939L273.639 200.519C277.204 198.39 280.747 196.291 284.342 193.918L284.534 203.994Z" fill="#CBCBCB" stroke="black"/>
<path d="M284.521 156.603C292.154 157.972 302.232 160.857 309.77 162.863C333.496 169.18 358.602 174.968 382.503 181.203L384.969 182.124L385.281 182.24L387.322 188.812C380.903 188.88 356.998 189.521 333.934 190.277C321.946 190.671 310.18 191.095 301.209 191.487C296.724 191.683 292.936 191.871 290.166 192.043C288.782 192.129 287.648 192.211 286.809 192.288C286.389 192.327 286.039 192.364 285.766 192.401H285.763L284.521 156.603Z" fill="#B1A7A8" stroke="black"/>
<path d="M228.7 228.215C228.678 228.23 228.656 228.246 228.634 228.262C228.116 228.617 227.446 229.048 226.667 229.532C225.109 230.501 223.129 231.673 221.088 232.866C217.016 235.246 212.681 237.716 211.02 238.771L154.588 272.21C154.586 272.118 154.586 272.044 154.581 271.986C154.58 271.972 154.576 271.956 154.574 271.939C154.577 271.915 154.581 271.89 154.584 271.864L165.388 235.036C165.664 234.141 166.007 233.098 166.373 231.979C166.738 230.863 167.125 229.672 167.489 228.489C168.147 226.352 168.736 224.205 168.975 222.543L228.7 228.215Z" fill="#84CB6D" stroke="black"/>
<path d="M98.625 147.735C98.8411 147.925 99.1262 148.191 99.4717 148.525C100.162 149.194 101.081 150.121 102.158 151.23C104.312 153.448 107.087 156.381 109.902 159.396C115.541 165.432 121.316 171.767 122.595 173.335C123.389 174.306 125.141 176.018 126.785 177.717C127.617 178.576 128.429 179.441 129.103 180.229C129.5 180.694 129.839 181.122 130.104 181.499L77.8926 181.484L98.623 147.733L98.625 147.735Z" fill="#87C9D5" stroke="black"/>
<path d="M278.875 107.111C281.038 106.465 282.984 106.252 285.732 106.861H285.733C295.829 109.094 306.254 110.688 316.124 113.121L282.962 123.129L282.903 123.146L282.852 123.177C281.355 124.062 279.906 124.785 278.425 125.522C277.131 126.167 275.813 126.822 274.437 127.602L273.843 127.943C271.114 129.541 268.289 131.203 265.378 132.703H265.377C263.533 133.655 262.335 134.441 261.507 134.899C260.664 135.366 260.12 135.549 259.362 135.489C258.55 135.425 257.469 135.079 255.566 134.35C253.8 133.672 251.256 132.639 247.69 131.273L255.81 114.854C260.819 113.599 265.681 111.588 270.568 110.042C272.405 109.461 273.936 108.891 275.281 108.385C276.631 107.877 277.779 107.439 278.875 107.111Z" fill="#6CA1AC" stroke="black"/>
<path d="M204.573 131.63C205.406 133.801 206.337 135.994 207.28 138.194C208.29 140.551 209.315 142.917 210.255 145.295C211.891 149.436 214.369 155.132 215.403 159.316C214.648 159.591 213.577 160.111 212.359 160.751C210.838 161.55 209.031 162.567 207.207 163.611C203.543 165.709 199.837 167.903 198.161 168.729L198.149 168.735L198.137 168.742L182.301 177.687L192.49 139.863L192.489 139.862C192.717 139.055 192.857 138.433 192.962 137.933C193.069 137.421 193.135 137.072 193.221 136.767C193.368 136.242 193.566 135.873 194.244 135.184L204.573 131.63Z" fill="#6CA1AC" stroke="black"/>
<path d="M283.021 133.856C281.309 134.567 279.506 135.601 277.77 136.624C275.905 137.723 274.121 138.803 272.536 139.519L271.933 139.791L272.359 140.297C272.645 140.636 272.85 140.885 273.012 141.059C273.182 141.241 273.339 141.379 273.546 141.483C273.734 141.578 273.944 141.632 274.169 141.692C274.405 141.756 274.717 141.838 275.17 141.985V141.986L283.499 144.898L283.494 154.555C280.66 153.886 277.015 152.482 273.813 151.218L270.606 149.958L268.966 149.315C267.436 148.707 266.228 148.198 265.239 147.79C263.934 147.252 262.981 146.875 262.19 146.694C261.371 146.507 260.704 146.524 259.975 146.773C259.283 147.01 258.548 147.452 257.586 148.055L235.767 160.009C236.974 155.601 239.627 149.777 241.365 145.671V145.67C243.32 141.049 245.026 135.758 247.482 131.451C251.137 132.836 253.582 133.823 255.439 134.528C257.311 135.239 258.523 135.638 259.5 135.715C260.531 135.796 261.276 135.518 262.197 135.014C263.133 134.501 264.177 133.805 266.028 132.859L266.027 132.858C268.957 131.363 271.796 129.711 274.51 128.137H274.511C276.065 127.235 277.54 126.507 279.016 125.779C280.253 125.169 281.49 124.556 282.76 123.847L283.021 133.856Z" fill="#CBCBCB" stroke="black"/>
<path d="M149.326 287.581L140.471 316.856L140.466 316.873L140.462 316.89C140.308 317.556 140.2 317.931 140.134 318.135C140.104 318.228 140.081 318.284 140.068 318.317C139.943 318.255 139.805 318.177 139.656 318.082C139.063 317.703 138.374 317.118 137.68 316.466C136.989 315.817 136.311 315.117 135.738 314.519C135.178 313.933 134.696 313.419 134.428 313.177C133.999 312.788 133.606 312.478 133.218 312.178C133.022 312.027 132.829 311.879 132.632 311.724L132.02 311.228L123.143 303.013L123.141 303.012C121.724 301.711 120.123 300.373 118.542 299.03C116.956 297.683 115.385 296.327 114.008 294.976L114.001 294.969L113.993 294.962L107.277 288.878C106.854 288.456 106.354 287.991 106.12 287.727L106.119 287.726C106.038 287.634 105.969 287.561 105.909 287.501L149.326 287.581ZM140.257 318.138C140.263 318.134 140.274 318.128 140.285 318.122C140.286 318.121 140.289 318.121 140.292 318.119C140.275 318.128 140.262 318.134 140.257 318.138Z" fill="#87C9D5" stroke="black"/>
<path d="M214.383 1.49512C226.693 -0.487818 239.272 0.468504 250.824 4.57812L251.939 4.98535C257.292 6.99338 262.207 9.51785 266.332 12.293C269.824 14.6418 275.744 19.1097 278.18 21.376L278.619 21.7988C279.771 22.9545 280.502 23.9144 281.193 24.9141C281.881 25.9087 282.555 26.9865 283.55 28.3066L283.551 28.3076C284.356 29.3741 285.078 30.218 285.798 31.0928C286.519 31.9695 287.25 32.8928 288.096 34.1455V34.1465C290.514 37.7232 293.763 44.0034 295.364 48.6348C299.372 60.2235 301.7 72.3619 299.862 85.1924C298.15 97.164 293.916 108.59 287.873 116.98L287.87 116.984L233.822 193.436L233.821 193.438C233.397 194.044 232.981 194.676 232.571 195.297C232.16 195.92 231.754 196.532 231.342 197.108C230.511 198.269 229.684 199.243 228.799 199.848C227.935 200.437 227.032 200.666 225.991 200.372C224.917 200.069 223.628 199.189 222.071 197.396H222.072C220.314 195.369 218.811 193.274 217.346 191.146C215.885 189.025 214.453 186.861 212.857 184.733C207.982 178.235 195.559 160.929 183.899 144.253C178.07 135.916 172.434 127.738 168.029 121.15C163.611 114.543 160.462 109.579 159.575 107.639C138.228 60.9264 167.695 9.02365 214.383 1.49512ZM247.331 48.5869C240.967 43.3521 232.193 40.6205 221.308 42.3584C210.542 44.0764 203.083 49.566 198.657 56.7227C194.239 63.8681 192.862 72.6455 194.189 80.9326C195.517 89.2197 199.555 97.0545 206.015 102.302C212.485 107.558 221.351 110.189 232.256 108.115C253.186 104.134 261.356 85.9227 258.855 69.6465C257.605 61.5072 253.686 53.8137 247.331 48.5869Z" fill="#E70000" stroke="black"/>
<path d="M227.5 0.500977C235.968 0.537188 244.349 2.00854 252.225 4.98535C257.546 6.99333 262.433 9.51788 266.533 12.293C270.236 14.7984 276.685 19.7144 278.747 21.7959C279.892 22.9526 280.619 23.9132 281.306 24.9131C281.989 25.9081 282.66 26.9854 283.649 28.3057V28.3066C284.45 29.3733 285.169 30.2169 285.884 31.0918C286.6 31.9685 287.327 32.8919 288.168 34.1445V34.1455C290.572 37.7222 293.802 44.0022 295.395 48.6338C299.379 60.2227 301.693 72.3621 299.866 85.1934C298.736 93.1347 296.504 100.84 293.372 107.582L293.065 108.231C291.549 111.398 289.838 114.342 287.946 116.981L287.943 116.985L283.903 122.734L282.372 124.911L265.763 148.546L234.213 193.438L234.212 193.439C233.01 195.167 231.95 196.99 230.756 198.399C229.703 199.642 228.66 200.415 227.5 200.491V108.761C228.938 108.678 230.417 108.51 231.935 108.247L232.66 108.115C252.604 104.299 260.897 87.4085 259.36 71.6836C257.838 56.1048 246.647 41.522 227.5 41.8438V0.500977Z" fill="#EB6B6A" stroke="black"/>
</svg>
