<svg width="589" height="570" viewBox="0 0 589 570" fill="none" xmlns="http://www.w3.org/2000/svg">
<path fill-rule="evenodd" clip-rule="evenodd" d="M236.148 389.303L237.063 388.583L236.928 388.016C236.917 386.62 236.73 389.03 236.927 387.403L247.318 352.269C248.387 348.84 250.47 343.157 250.805 339.988L248.829 339.556C246.927 338.227 225.455 315.369 223.856 313.076L157.025 313.091L133.257 350.406C134.102 352.051 160.82 375.427 161.82 376.22C163.626 377.65 164.821 379.099 166.64 380.524L176.2 389.176C178.818 391.337 178.328 391.491 182.936 391.45L229.257 391.457C233.79 391.476 232.831 390.818 236.148 389.303Z" fill="#94DB7F"/>
<path fill-rule="evenodd" clip-rule="evenodd" d="M233.22 400.774L224.506 429.178C223.906 431.746 223.977 429.963 224.498 431.021L365.769 391.633L364.513 351.269V350.976C357.587 349.802 349.88 349.512 342.652 348.699C338.907 348.277 335.326 347.951 331.598 347.637C325.681 347.14 327.013 346.515 322.486 349.24L292.82 366.676C282.925 372.245 272.928 378.322 263.173 384.137C258.951 386.655 236.1 400.672 233.22 400.774Z" fill="#F3E7D1"/>
<path fill-rule="evenodd" clip-rule="evenodd" d="M253.323 330.72L253.873 330.721C254.519 327.486 257.345 317.195 258.623 314.35C259.358 312.714 259.715 313.132 261.569 312.299L293.439 295.692C295.956 294.215 298.869 293.366 300.376 291.338L297.213 282.937C294.548 283.572 283.087 290.178 279.722 291.718L263.302 300.327C261.556 301.375 263.115 300.161 262.917 300.686L273.393 264.583C274.285 261.647 273.789 261.429 275.34 259.99C272.409 259.545 248.801 244.771 244.301 242.203C239.138 239.256 234.213 236.232 229.104 233.162L213.388 224.08C212.072 227.262 191.625 257.436 189.13 262.607C191.185 265.368 193.52 267.218 195.779 269.898C196.951 271.284 198.213 272.264 199.37 273.584L224.07 299.855C227.843 304.332 227.097 303.796 234.789 303.793L256.949 303.735C258.784 303.469 260.219 302.072 262.374 301.411C262.15 303.928 260.802 307.503 260.048 310.221C259.731 311.364 259.565 312.738 258.396 313.038L236.946 313.064C237.053 313.912 237.626 314.182 238.415 315.06L253.323 330.72Z" fill="#87C9D5"/>
<path fill-rule="evenodd" clip-rule="evenodd" d="M363.584 324.578C362.257 326.031 359.644 327.131 358.031 328.105C355.924 329.377 353.799 330.575 351.981 331.636C347.931 334.001 344.088 336.348 340.147 338.498C340.905 339.237 341.318 339.436 342.899 339.62L352.071 340.325C356.129 340.662 360.383 341.395 364.358 341.478C367.614 341.941 390.086 350.415 394.961 352.202C401.606 354.638 483.606 384.363 487.025 384.997L465.772 319.747L368.591 322.852C365.724 323.084 366.196 324.232 363.584 324.578Z" fill="#F3E7D1"/>
<path fill-rule="evenodd" clip-rule="evenodd" d="M365.769 391.633L500.583 426.733L491.058 397.164C490.182 395.628 484.573 394.215 481.74 393.177C468.642 388.379 455.9 383.951 442.917 379.189C430.065 374.475 416.894 369.978 404.062 365.32C397.39 362.898 368.877 352.31 364.513 351.269L365.769 391.633Z" fill="#87C9D5"/>
<path fill-rule="evenodd" clip-rule="evenodd" d="M315.252 283.819C313.497 287.511 311.856 293.719 310.633 297.94C309.77 300.925 308.044 311.474 306.844 313.178L306.813 315.347C305.703 312.162 304.856 306.81 303.88 303.262C302.777 299.246 301.276 295.243 300.376 291.338C298.869 293.366 295.956 294.215 293.44 295.692L261.569 312.299C259.716 313.132 259.358 312.714 258.623 314.35C257.345 317.195 254.519 327.486 253.873 330.721C257.398 331.929 279.808 333.399 285.194 333.884C295.807 334.838 306.634 336.038 317.21 336.946C326.34 337.728 323.756 337.429 330.421 333.671C334.224 331.526 337.615 329.478 341.44 327.309C343.337 326.234 344.862 325.135 346.87 324.027C348.792 322.969 350.522 321.836 352.332 320.805C356.02 318.707 359.669 316.651 363.379 314.283L363.411 314.17L362.17 278.733L362.149 278.543C358.387 277.81 352.856 275.579 349.162 274.232C340.173 270.957 340.858 270.254 337.116 272.474L315.252 283.819Z" fill="#6CA1AC"/>
<path fill-rule="evenodd" clip-rule="evenodd" d="M88.4168 396.097L211.529 433.171L172.239 397.951C165.192 392.483 150.374 377.91 143.667 372.741C140.101 369.993 123.163 354.097 120.947 352.741C121.369 350.469 137.02 327.326 139.766 322.289C135.511 327.518 130.9 334.585 126.878 340.491L97.9661 381.957C96.0477 384.72 88.9109 394.117 88.4168 396.097Z" fill="#CBCBCB"/>
<path fill-rule="evenodd" clip-rule="evenodd" d="M247.172 434.715C256.035 434.926 268.153 433.306 277.365 432.746L336.061 428.691C345.633 428.105 355.863 426.921 365.304 426.703C374.458 426.491 386.047 427.571 395.41 428.072C405.274 428.6 415.211 429.05 425.126 429.472C434.432 429.867 479.934 432.715 484.952 432.098C483.499 432.161 458.775 425.397 455.051 424.389C442.696 421.047 366.917 401.068 365.138 401.336L250.68 433.423C250.168 433.56 249.363 433.735 248.889 433.895L247.507 434.517C247.448 434.418 247.278 434.641 247.172 434.715Z" fill="#CBCBCB"/>
<path fill-rule="evenodd" clip-rule="evenodd" d="M361.705 259.513C358.323 260.772 354.471 263.437 351.377 264.759C352.503 266.024 352.051 265.596 353.86 266.155L362.154 268.902L456.691 292.708L442.721 249.177C437.347 247.486 427.372 246.115 421.444 244.967C412.53 243.24 412.527 244.674 401.064 247.901C394.378 249.782 365.822 257.591 361.705 259.513Z" fill="#87C9D5"/>
<path fill-rule="evenodd" clip-rule="evenodd" d="M253.873 330.721L253.323 330.72C253.462 333.927 251.661 336.645 251.199 339.787L248.83 339.556L250.805 339.988L309.845 345.549C308.457 346.995 295.041 354.373 291.87 356.37L237.063 388.583L236.148 389.303L233.22 400.774C236.1 400.672 258.951 386.655 263.173 384.137C272.929 378.322 282.925 372.245 292.82 366.676L322.486 349.241C327.013 346.515 325.681 347.14 331.599 347.638C335.326 347.951 338.907 348.277 342.652 348.699C349.88 349.512 357.587 349.803 364.513 350.976L364.358 341.478C360.383 341.395 356.129 340.662 352.071 340.325L342.899 339.62C341.318 339.436 340.905 339.237 340.148 338.498C344.088 336.348 347.931 334.001 351.981 331.636C353.799 330.575 355.924 329.378 358.031 328.105C359.644 327.131 362.257 326.031 363.584 324.578L363.379 314.283C359.669 316.651 356.02 318.707 352.332 320.805C350.522 321.836 348.792 322.969 346.87 324.028C344.862 325.135 343.337 326.234 341.44 327.309C337.615 329.478 334.224 331.526 330.421 333.671C323.756 337.429 326.34 337.728 317.21 336.946C306.634 336.038 295.807 334.838 285.194 333.884C279.808 333.399 257.398 331.929 253.873 330.721Z" fill="#CBCBCB"/>
<path fill-rule="evenodd" clip-rule="evenodd" d="M363.411 314.17C366.529 313.166 452.596 310.677 462.651 310.632L460.393 303.425C460.101 303.416 459.945 303.213 459.891 303.304L457.482 302.414C434.343 296.43 410.143 290.9 387.192 284.843C379.734 282.875 369.637 280.003 362.17 278.733L363.411 314.17Z" fill="#B1A7A8"/>
<path fill-rule="evenodd" clip-rule="evenodd" d="M237.063 388.583L291.869 356.37C295.041 354.373 308.457 346.995 309.845 345.549L250.805 339.988C250.47 343.157 248.387 348.84 247.318 352.269L236.927 387.403C236.73 389.03 236.917 386.62 236.928 388.016L237.063 388.583Z" fill="#84CB6D"/>
<path fill-rule="evenodd" clip-rule="evenodd" d="M163.013 303.828L214.526 303.843C213.435 301.718 208.359 297.228 206.878 295.453C204.412 292.494 184.788 271.73 183.511 271.149L163.013 303.828Z" fill="#87C9D5"/>
<path fill-rule="evenodd" clip-rule="evenodd" d="M335.059 241.159L326.987 256.47C341.729 261.741 337.671 261.323 344.734 257.906C347.524 256.557 350.23 255.064 352.83 253.636C355.838 251.983 358.535 250.974 361.424 249.372L394.706 239.953C384.804 237.549 374.177 236.059 364.033 233.955C358.611 232.828 356.278 234.747 349.322 236.811C344.529 238.233 339.901 240.043 335.059 241.159Z" fill="#6CA1AC"/>
<path fill-rule="evenodd" clip-rule="evenodd" d="M275.34 259.99C273.789 261.429 274.285 261.646 273.393 264.583L262.917 300.686C263.115 300.161 261.556 301.375 263.303 300.327L279.722 291.718C283.087 290.178 294.548 283.572 297.213 282.937C296.248 279.004 293.639 273.459 291.97 269.539C290.097 265.142 287.892 260.789 286.161 256.535L275.34 259.99Z" fill="#6CA1AC"/>
<path fill-rule="evenodd" clip-rule="evenodd" d="M326.987 256.47C324.505 260.465 322.803 265.495 320.904 269.746C319.112 273.757 316.242 279.691 315.252 283.819L337.116 272.474C340.857 270.254 340.173 270.957 349.162 274.232C352.855 275.578 358.387 277.81 362.148 278.543L362.154 268.902L353.86 266.155C352.051 265.596 352.503 266.024 351.378 264.759C354.472 263.437 358.323 260.772 361.705 259.513L361.424 249.372C358.535 250.974 355.838 251.983 352.83 253.636C350.23 255.064 347.524 256.557 344.734 257.906C337.671 261.323 341.73 261.741 326.987 256.47Z" fill="#CBCBCB"/>
<path fill-rule="evenodd" clip-rule="evenodd" d="M224.498 431.021C223.977 429.963 223.907 431.746 224.506 429.178L233.22 400.774L189.891 400.695C190.232 401.52 190.042 401.07 190.609 401.699C190.846 401.964 191.359 402.437 191.744 402.815L198.228 408.606C200.907 411.198 204.322 413.793 207.033 416.246L215.597 424.06C216.439 424.757 217.105 425.186 217.904 425.899C218.869 426.759 223.071 431.642 224.498 431.021Z" fill="#87C9D5"/>
<path fill-rule="evenodd" clip-rule="evenodd" d="M302.368 174.863C343.847 168.517 352.505 227.468 312.759 234.713C271.222 242.283 261.383 181.13 302.368 174.863ZM295.538 136.192C250.201 143.198 221.608 191.479 242.325 234.918C245.826 242.258 284.344 294.218 293.757 306.24C296.819 310.152 299.237 314.181 302.665 317.966C308.776 324.712 311.519 318.702 314.753 314.271L366.872 243.628C372.753 235.804 376.859 225.171 378.519 214.051C380.306 202.098 378.04 190.804 374.161 180.055C372.602 175.734 369.449 169.895 367.095 166.56C365.441 164.211 364.235 163.096 362.697 161.145C360.793 158.723 360.171 157.268 357.899 155.083C355.863 153.124 349.574 148.56 345.978 146.243C341.967 143.657 337.194 141.308 331.999 139.441C320.484 135.297 307.868 134.289 295.538 136.192Z" fill="#E70000"/>
<path fill-rule="evenodd" clip-rule="evenodd" d="M374.161 180.055C372.601 175.734 369.448 169.895 367.095 166.56C365.441 164.211 364.234 163.096 362.697 161.145C360.793 158.723 360.171 157.269 357.898 155.081C355.863 153.124 349.574 148.561 345.978 146.243C341.967 143.657 337.194 141.308 331.999 139.441C324.151 136.616 315.794 135.248 307.36 135.267V174.401C344.48 173.321 350.856 227.769 312.759 234.713C310.897 235.052 309.096 235.252 307.36 235.325V320.98C310.467 321.247 312.49 317.372 314.753 314.271L345.356 272.791L361.467 250.952L362.952 248.94L366.871 243.628C368.725 241.164 370.399 238.42 371.881 235.473C375.097 229.056 377.381 221.668 378.519 214.051C380.306 202.098 378.04 190.804 374.161 180.055Z" fill="#EB6B6A"/>
</svg>
