<svg width="847" height="832" viewBox="0 0 847 832" fill="none" xmlns="http://www.w3.org/2000/svg">
<path fill-rule="evenodd" clip-rule="evenodd" d="M359.634 572.567L361.027 571.414L360.822 570.506C360.806 568.271 360.52 572.131 360.821 569.524L376.645 513.248C378.273 507.756 381.445 498.653 381.956 493.577L378.947 492.885C376.051 490.756 343.349 454.144 340.915 450.471L239.137 450.494L202.94 510.264C204.226 512.9 244.916 550.342 246.44 551.612C249.189 553.903 251.01 556.223 253.78 558.506L268.339 572.364C272.325 575.826 271.579 576.073 278.597 576.007L349.141 576.018C356.044 576.049 354.584 574.994 359.634 572.567Z" fill="#94DB7F"/>
<path fill-rule="evenodd" clip-rule="evenodd" d="M355.176 590.941L341.904 636.438C340.992 640.552 341.098 637.695 341.893 639.39L557.038 576.3L555.124 511.646V511.178C544.577 509.298 532.839 508.832 521.832 507.53C516.129 506.854 510.674 506.333 504.998 505.83C495.986 505.033 498.015 504.031 491.121 508.398L445.942 536.324C430.872 545.245 415.648 554.978 400.792 564.293C394.361 568.327 359.561 590.778 355.176 590.941Z" fill="#F3E7D1"/>
<path fill-rule="evenodd" clip-rule="evenodd" d="M385.79 478.732L386.628 478.734C387.612 473.552 391.915 457.068 393.862 452.512C394.982 449.892 395.526 450.561 398.349 449.226L446.885 422.626C450.717 420.26 455.154 418.899 457.448 415.652L452.631 402.195C448.573 403.212 431.119 413.794 425.995 416.26L400.989 430.05C398.329 431.728 400.703 429.784 400.401 430.624L416.356 372.798C417.714 368.093 416.958 367.745 419.321 365.441C414.857 364.727 378.904 341.063 372.051 336.95C364.188 332.229 356.688 327.385 348.907 322.469L324.972 307.921C322.968 313.018 291.83 361.35 288.029 369.632C291.16 374.054 294.715 377.018 298.156 381.31C299.941 383.531 301.863 385.1 303.625 387.214L341.24 429.295C346.987 436.465 345.85 435.607 357.565 435.602L391.313 435.509C394.108 435.082 396.293 432.846 399.575 431.786C399.233 435.818 397.181 441.544 396.033 445.897C395.549 447.728 395.297 449.929 393.517 450.41L360.851 450.452C361.012 451.811 361.885 452.242 363.086 453.648L385.79 478.732Z" fill="#87C9D5"/>
<path fill-rule="evenodd" clip-rule="evenodd" d="M553.709 468.894C551.688 471.222 547.709 472.983 545.253 474.544C542.044 476.582 538.807 478.499 536.039 480.199C529.871 483.988 524.019 487.746 518.017 491.191C519.17 492.374 519.799 492.694 522.207 492.987L536.176 494.117C542.356 494.657 548.835 495.83 554.888 495.964C559.847 496.705 594.07 510.279 601.494 513.141C611.613 517.044 736.493 564.655 741.7 565.671L709.334 461.156L561.334 466.129C556.969 466.501 557.687 468.34 553.709 468.894Z" fill="#F3E7D1"/>
<path fill-rule="evenodd" clip-rule="evenodd" d="M557.038 576.3L762.348 632.522L747.842 585.159C746.509 582.699 737.966 580.436 733.651 578.773C713.704 571.088 694.299 563.995 674.527 556.368C654.955 548.817 634.896 541.614 615.354 534.152C605.193 530.273 561.77 513.314 555.124 511.646L557.038 576.3Z" fill="#87C9D5"/>
<path fill-rule="evenodd" clip-rule="evenodd" d="M480.104 403.608C477.431 409.521 474.931 419.465 473.069 426.226C471.754 431.008 469.126 447.904 467.299 450.634L467.251 454.108C465.561 449.007 464.271 440.434 462.784 434.751C461.106 428.318 458.82 421.907 457.448 415.652C455.154 418.899 450.717 420.26 446.885 422.625L398.349 449.226C395.526 450.561 394.982 449.891 393.862 452.512C391.915 457.068 387.612 473.552 386.628 478.734C391.997 480.668 426.125 483.023 434.328 483.799C450.491 485.328 466.979 487.25 483.085 488.704C496.989 489.957 493.055 489.479 503.204 483.458C508.996 480.023 514.16 476.743 519.986 473.268C522.875 471.546 525.197 469.787 528.256 468.012C531.182 466.317 533.817 464.502 536.573 462.851C542.189 459.49 547.747 456.197 553.397 452.403L553.445 452.223L551.557 395.461L551.523 395.157C545.795 393.984 537.371 390.409 531.746 388.252C518.056 383.006 519.099 381.88 513.401 385.436L480.104 403.608Z" fill="#6CA1AC"/>
<path fill-rule="evenodd" clip-rule="evenodd" d="M134.652 583.45L322.142 642.834L262.306 586.42C251.574 577.661 229.007 554.319 218.794 546.04C213.363 541.638 187.567 516.176 184.192 514.004C184.836 510.366 208.671 473.296 212.852 465.227C206.372 473.603 199.351 484.922 193.225 494.383L149.195 560.802C146.273 565.227 135.404 580.279 134.652 583.45Z" fill="#CBCBCB"/>
<path fill-rule="evenodd" clip-rule="evenodd" d="M376.423 645.307C389.921 645.645 408.375 643.05 422.404 642.153L511.794 635.657C526.372 634.72 541.951 632.823 556.329 632.473C570.269 632.133 587.919 633.864 602.178 634.667C617.2 635.513 632.333 636.233 647.434 636.909C661.606 637.542 730.902 642.104 738.543 641.115C736.331 641.216 698.677 630.382 693.006 628.767C674.19 623.414 558.785 591.413 556.077 591.841L381.766 643.237C380.986 643.457 379.76 643.738 379.038 643.994L376.934 644.989C376.844 644.831 376.585 645.188 376.423 645.307Z" fill="#CBCBCB"/>
<path fill-rule="evenodd" clip-rule="evenodd" d="M550.847 364.677C545.697 366.692 539.832 370.962 535.12 373.08C536.833 375.106 536.146 374.42 538.901 375.315L551.532 379.715L695.504 417.847L674.228 348.12C666.044 345.411 650.854 343.215 641.826 341.378C628.25 338.611 628.245 340.907 610.789 346.077C600.606 349.09 557.118 361.598 550.847 364.677Z" fill="#87C9D5"/>
<path fill-rule="evenodd" clip-rule="evenodd" d="M386.628 478.734L385.79 478.732C386.002 483.869 383.259 488.222 382.556 493.256L378.947 492.886L381.956 493.577L471.869 502.484C469.755 504.801 449.324 516.619 444.494 519.817L361.027 571.414L359.634 572.568L355.176 590.941C359.561 590.778 394.361 568.327 400.792 564.293C415.648 554.978 430.872 545.245 445.942 536.324L491.121 508.398C498.015 504.031 495.986 505.033 504.998 505.83C510.674 506.333 516.129 506.854 521.832 507.53C532.839 508.832 544.577 509.298 555.124 511.178L554.889 495.965C548.835 495.83 542.356 494.657 536.176 494.117L522.207 492.987C519.799 492.694 519.17 492.374 518.017 491.191C524.019 487.747 529.871 483.988 536.039 480.199C538.807 478.499 542.044 476.582 545.253 474.544C547.709 472.983 551.688 471.222 553.709 468.894L553.397 452.403C547.747 456.197 542.189 459.49 536.573 462.851C533.817 464.502 531.182 466.318 528.256 468.012C525.197 469.787 522.875 471.547 519.986 473.269C514.16 476.743 508.996 480.023 503.204 483.458C493.055 489.479 496.989 489.958 483.085 488.704C466.979 487.251 450.491 485.328 434.328 483.8C426.125 483.024 391.997 480.668 386.628 478.734Z" fill="#CBCBCB"/>
<path fill-rule="evenodd" clip-rule="evenodd" d="M553.445 452.223C558.194 450.615 689.268 446.627 704.58 446.556L701.142 435.013C700.698 434.998 700.459 434.673 700.377 434.819L696.708 433.393C661.469 423.808 624.615 414.951 589.662 405.249C578.305 402.097 562.928 397.496 551.557 395.461L553.445 452.223Z" fill="#B1A7A8"/>
<path fill-rule="evenodd" clip-rule="evenodd" d="M361.027 571.414L444.494 519.817C449.324 516.619 469.755 504.801 471.869 502.484L381.956 493.577C381.445 498.653 378.273 507.756 376.645 513.248L360.821 569.524C360.52 572.131 360.806 568.271 360.822 570.506L361.027 571.414Z" fill="#84CB6D"/>
<path fill-rule="evenodd" clip-rule="evenodd" d="M248.255 435.658L326.706 435.682C325.044 432.279 317.314 425.086 315.058 422.243C311.304 417.503 281.417 384.244 279.473 383.313L248.255 435.658Z" fill="#87C9D5"/>
<path fill-rule="evenodd" clip-rule="evenodd" d="M510.269 335.277L497.975 359.802C520.427 368.245 514.247 367.575 525.002 362.102C529.252 359.942 533.373 357.55 537.332 355.263C541.913 352.615 546.02 350.998 550.42 348.432L601.105 333.346C586.027 329.495 569.842 327.109 554.393 323.739C546.136 321.934 542.583 325.008 531.99 328.313C524.69 330.59 517.642 333.491 510.269 335.277Z" fill="#6CA1AC"/>
<path fill-rule="evenodd" clip-rule="evenodd" d="M419.321 365.441C416.958 367.745 417.714 368.093 416.356 372.798L400.401 430.624C400.703 429.784 398.329 431.728 400.989 430.05L425.995 416.26C431.119 413.794 448.573 403.212 452.631 402.195C451.161 395.896 447.189 387.014 444.647 380.736C441.794 373.693 438.437 366.72 435.801 359.906L419.321 365.441Z" fill="#6CA1AC"/>
<path fill-rule="evenodd" clip-rule="evenodd" d="M497.975 359.802C494.196 366.202 491.603 374.258 488.711 381.067C485.982 387.491 481.612 396.997 480.104 403.608L513.401 385.436C519.099 381.88 518.056 383.006 531.746 388.252C537.371 390.409 545.795 393.984 551.523 395.157L551.531 379.715L538.901 375.315C536.146 374.42 536.833 375.106 535.12 373.08C539.832 370.962 545.697 366.692 550.847 364.677L550.42 348.432C546.02 350.998 541.912 352.615 537.332 355.263C533.373 357.55 529.252 359.942 525.002 362.102C514.247 367.575 520.427 368.245 497.975 359.802Z" fill="#CBCBCB"/>
<path fill-rule="evenodd" clip-rule="evenodd" d="M341.893 639.39C341.099 637.695 340.992 640.552 341.904 636.439L355.176 590.941L289.189 590.816C289.708 592.137 289.419 591.415 290.282 592.424C290.644 592.849 291.425 593.606 292.01 594.211L301.885 603.487C305.966 607.639 311.167 611.795 315.295 615.724L328.338 628.241C329.619 629.357 330.634 630.044 331.85 631.186C333.32 632.563 339.719 640.385 341.893 639.39Z" fill="#87C9D5"/>
<path fill-rule="evenodd" clip-rule="evenodd" d="M460.482 229.087C523.652 218.923 536.837 313.347 476.308 324.952C413.049 337.078 398.065 239.125 460.482 229.087ZM450.08 167.147C381.036 178.367 337.491 255.702 369.041 325.281C374.374 337.039 433.033 420.265 447.369 439.522C452.032 445.787 455.715 452.24 460.934 458.303C470.241 469.109 474.419 459.482 479.344 452.385L558.716 339.233C567.673 326.699 573.926 309.669 576.454 291.857C579.176 272.711 575.725 254.621 569.817 237.403C567.443 230.483 562.641 221.13 559.057 215.788C556.537 212.026 554.7 210.239 552.359 207.114C549.459 203.236 548.511 200.905 545.051 197.405C541.951 194.267 532.373 186.957 526.897 183.245C520.789 179.103 513.519 175.341 505.609 172.35C488.071 165.712 468.858 164.098 450.08 167.147Z" fill="#E70000"/>
<path fill-rule="evenodd" clip-rule="evenodd" d="M569.817 237.403C567.443 230.483 562.64 221.13 559.056 215.788C556.537 212.026 554.7 210.239 552.359 207.114C549.459 203.235 548.511 200.905 545.051 197.402C541.951 194.267 532.373 186.957 526.897 183.245C520.789 179.103 513.519 175.341 505.609 172.35C493.657 167.824 480.929 165.634 468.085 165.664V228.348C524.616 226.618 534.326 313.83 476.308 324.952C473.471 325.495 470.728 325.816 468.085 325.933V463.131C472.817 463.559 475.897 457.352 479.344 452.385L525.95 385.944L550.485 350.963L552.748 347.741L558.716 339.233C561.539 335.286 564.089 330.891 566.345 326.17C571.243 315.891 574.721 304.058 576.454 291.857C579.176 272.711 575.725 254.621 569.817 237.403Z" fill="#EB6B6A"/>
</svg>
