<svg width="53" height="45" viewBox="0 0 53 45" fill="none" xmlns="http://www.w3.org/2000/svg">
<path d="M45.2018 40.9579C47.2185 40.9579 48.8685 39.3266 48.8685 37.3329V19.2079C48.8685 17.2141 47.2185 15.5829 45.2018 15.5829H15.8685C13.8518 15.5829 12.2018 17.2141 12.2018 19.2079V37.3329C12.2018 39.3266 13.8518 40.9579 15.8685 40.9579H10.3685C9.36016 40.9579 8.53516 41.7735 8.53516 42.7704C8.53516 43.7673 9.36016 44.5829 10.3685 44.5829H50.7018C51.7102 44.5829 52.5352 43.7673 52.5352 42.7704C52.5352 41.7735 51.7102 40.9579 50.7018 40.9579H45.2018ZM17.7018 19.2079H43.3685C44.3768 19.2079 45.2018 20.0235 45.2018 21.0204V35.5204C45.2018 36.5173 44.3768 37.3329 43.3685 37.3329H17.7018C16.6935 37.3329 15.8685 36.5173 15.8685 35.5204V21.0204C15.8685 20.0235 16.6935 19.2079 17.7018 19.2079Z" fill="#30458A"/>
<path d="M8.3755 6.092C10.4232 4.65333 12.9042 4.02299 15.2671 4.32925C17.6281 4.63528 19.6758 5.84946 20.971 7.69284C21.883 8.99103 22.4528 10.8137 22.7783 12.8643C23.1025 14.9066 23.1771 17.1303 23.1305 19.1955C23.0838 21.2584 22.9163 23.1513 22.7603 24.5291C22.6823 25.2177 22.6072 25.7777 22.5518 26.1639C22.5475 26.1939 22.5428 26.2227 22.5388 26.2506C22.5112 26.245 22.4824 26.2396 22.4527 26.2335C22.0707 26.1547 21.5192 26.0349 20.8449 25.8748C19.4957 25.5545 17.6576 25.071 15.7008 24.4155C13.7422 23.7593 11.6762 22.9345 9.86475 21.9373C8.0459 20.9358 6.52437 19.7819 5.61227 18.4837C4.31718 16.6404 3.86837 14.3027 4.38076 11.9779C4.89365 9.65115 6.32791 7.5307 8.3755 6.092ZM11.1455 10.0346C10.2821 10.6413 9.66781 11.5417 9.44643 12.5459C9.2247 13.5521 9.41589 14.5834 9.9935 15.4055C10.5711 16.2276 11.4765 16.7571 12.4983 16.8896C13.5181 17.0218 14.5734 16.7492 15.4369 16.1425C15.8651 15.8417 16.236 15.466 16.5274 15.0362C16.8189 14.6063 17.0262 14.129 17.136 13.6312C17.2457 13.1333 17.2563 12.6238 17.163 12.1323C17.0696 11.6406 16.8744 11.1779 16.5889 10.7716C16.0113 9.94942 15.1061 9.41997 14.0842 9.2875C13.0643 9.15532 12.009 9.42785 11.1455 10.0346Z" fill="#FE0000" stroke="black"/>
</svg>
